<svg>
<path class="fil1" d="M1.64414 1.26293c0.0219016,-0.0126732 0.0499488,-0.00518898 0.062626,0.0167126 0.0126772,0.0219055 0.00519291,0.0499488 -0.0167087,0.062626 -0.0219016,0.0126772 -0.0499488,0.00519685 -0.062626,-0.0167087 -0.0126772,-0.0219016 -0.00519291,-0.0499528 0.0167087,-0.0626299zm0.378874 -0.578307l0.28439 0.163795 -0.293705 -0.000830709c7.87402e-005,-0.0144803 -0.00357087,-0.0291654 -0.0113425,-0.0425984 -0.0233268,-0.0403071 -0.0749291,-0.0540748 -0.115236,-0.030748l-0.000409449 0.000244094 -0.148035 -0.253614 0.284339 0.163752zm0.312339 0.133949l-0.292469 -0.168445 -0.292457 -0.168437c0.000925197,-0.0159016 -0.00263386,-0.0322402 -0.0112087,-0.0470591 -0.0233268,-0.0403071 -0.0749252,-0.0540669 -0.115232,-0.0307402 -0.0285236,0.0165079 -0.043752,0.0471811 -0.0419528,0.0779843l-0.292091 0.169043 -0.29211 0.169055c-0.025811,-0.0169016 -0.0599882,-0.0189724 -0.0885118,-0.0024685 -0.0403031,0.0233268 -0.0540748,0.0749252 -0.030748,0.115228 0.00857087,0.014815 0.0209606,0.0260433 0.0352126,0.0331575l0.000358268 0.337512 0.000358268 0.337492c-0.00144882,0.000732283 -0.00288976,0.00151181 -0.00431102,0.00233465 -0.0403031,0.0233268 -0.0540709,0.0749252 -0.0307441,0.115232 0.0233268,0.0403031 0.0749252,0.0540748 0.115232,0.030748 0.00142126,-0.000822835 0.00280315,-0.0016811 0.00416142,-0.0025748l0.292476 0.168457 0.292453 0.168433c-0.000925197,0.0159016 0.0026378,0.0322362 0.0112047,0.0470433 0.0233268,0.0403071 0.0749291,0.0540748 0.115236,0.030748 0.0285197,-0.0165079 0.043748,-0.0471772 0.0419528,-0.0779724l0.291807 -0.168878 0.303378 -0.175575c0.0219724,0.00715354 0.0467874,0.00530315 0.0683622,-0.00718504 0.0403071,-0.0233268 0.0540748,-0.0749291 0.030748,-0.115232 -0.00667717,-0.0115354 -0.0156693,-0.0208937 -0.0260472,-0.0278307l-0.000350394 -0.326831 -0.000358268 -0.337508c0.00144488,-0.000728346 0.00288189,-0.00150394 0.00430315,-0.00232677 0.0403031,-0.0233268 0.0540748,-0.0749291 0.030748,-0.115232 -0.0233268,-0.0403071 -0.0749291,-0.0540748 -0.115236,-0.030748 -0.00142126,0.000822835 -0.00280709,0.0016811 -0.00416535,0.0025748zm-1.02417 1.10202l-0.284358 -0.163776 0.293669 0.000787402c-7.87402e-005,0.0144803 0.00357087,0.0291693 0.0113465,0.0426024 0.0233268,0.0403071 0.0749252,0.0540748 0.115232,0.030748l0.000362205 -0.000216535 0.148114 0.253614 -0.284366 -0.16376zm-0.357236 -0.617236l-0.000338583 -0.328201 0.146134 0.254791 -0.00038189 0.000212598c-0.0403071,0.0233268 -0.0540748,0.0749291 -0.030748,0.115236 0.00777559,0.0134331 0.018689,0.0239055 0.0312795,0.0310512l-0.145591 0.255043 -0.000354331 -0.328134zm1.42631 -0.0015l0.000326772 0.312827c-0.0029685,-0.000251969 -0.00594094,-0.000358268 -0.00893307,-0.000291339l-0.137181 -0.239154 0.000370079 -0.000204724c0.0403031,-0.0233268 0.0540709,-0.0749291 0.0307441,-0.115232 -0.00777165,-0.0134291 -0.018689,-0.0239055 -0.0312756,-0.0310551l0.145594 -0.255031 0.000354331 0.328142zm-0.356228 0.618146l-0.28374 0.164209 0.147575 -0.253929c0.0252953,0.0147126 0.057563,0.0158268 0.0847087,0.000114173 0.0271417,-0.0157047 0.0422402,-0.0442362 0.0420945,-0.0735039l0.293669 -0.0014252 -0.284307 0.164535zm-0.998185 -1.07024l0.284047 -0.164386 0.283984 -0.16435 -0.147524 0.253902c-0.0252953,-0.0147205 -0.0575709,-0.0158465 -0.0847165,-0.000133858 -0.0271457,0.0157126 -0.042252,0.0442441 -0.0420945,0.0735118l-0.293697 0.00145669zm0.450146 -0.0456929l0.14776 -0.254331c0.00712992,0.00414173 0.0148071,0.0072126 0.0227638,0.00912598l0.00069685 0.661768c-0.00135039,0.000330709 -0.00270079,0.000688976 -0.00403543,0.00108661l-0.181091 -0.312894c0.0275709,-0.0262559 0.034689,-0.068878 0.0147795,-0.10328l-0.000874016 -0.00147638zm-0.440083 0.0859016l0.29413 -0.00145276 0.000850394 0.00150787c0.0199134,0.0344055 0.0604173,0.0494646 0.0969134,0.0386457l0.181087 0.31289c-0.00101181,0.00096063 -0.00198819,0.00194882 -0.00294488,0.00295669l-0.573461 -0.33028c0.00230315,-0.00785039 0.0034685,-0.0160315 0.0034252,-0.0242677zm-0.107299 -0.0391496c0.0219055,-0.0126772 0.0499567,-0.00519291 0.0626299,0.0167087 0.0126772,0.0219016 0.00519291,0.0499528 -0.0167126,0.0626299 -0.0219055,0.0126772 -0.0499488,0.00518898 -0.062626,-0.0167165 -0.0126732,-0.0218976 -0.00519291,-0.0499449 0.0167087,-0.062622zm0.0648346 0.112862l0.000366142 -0.000204724c0.00716535,-0.00414961 0.0134961,-0.00919291 0.0189213,-0.0149094l0.573457 0.33028c-0.000393701,0.00133465 -0.000751969,0.00267717 -0.0010748,0.0040315l-0.361535 0.000377953c-0.0018622,-0.00766142 -0.00483071,-0.015185 -0.00898031,-0.0223504 -0.0159409,-0.0275433 -0.0450866,-0.042689 -0.074811,-0.0420787l-0.146343 -0.255146zm0.649831 -0.526476c0.0219055,-0.0126772 0.0499488,-0.00519291 0.062626,0.0167087 0.0126772,0.0219016 0.00519685,0.0499488 -0.0167087,0.062626 -0.0219016,0.0126772 -0.0499488,0.00518898 -0.062626,-0.0167126 -0.0126732,-0.0219016 -0.00519291,-0.0499449 0.0167087,-0.062622zm0.0428504 0.121634c0.00766535,-0.0018622 0.015185,-0.00483071 0.0223504,-0.00898031l0.000385827 -0.000228346 0.148287 0.254051c-0.0153189,0.0254567 -0.0167047,0.0582559 -0.000767717,0.0857913 0.00414567,0.00716535 0.00919291,0.0134843 0.0149055,0.0189173l-0.180441 0.313291c-0.00133465,-0.000389764 -0.00267323,-0.000751969 -0.00402362,-0.0010748l-0.00069685 -0.661768zm-0.305201 0.249276c0.0218976,-0.0126732 0.0499449,-0.00519291 0.062622,0.0167126 0.0126772,0.0219016 0.00518898,0.0499449 -0.0167087,0.062622 -0.0219055,0.0126772 -0.0499528,0.00519685 -0.0626299,-0.0167087 -0.0126772,-0.0219016 -0.00518898,-0.0499449 0.0167165,-0.062626zm0.90985 0.907177l-0.286606 0.00138976 -0.000854331 -0.00151575c-0.0199055,-0.0343976 -0.0604134,-0.0494606 -0.0969134,-0.0386339l-0.181091 -0.312898c0.00101181,-0.00096063 0.00199606,-0.00195276 0.00295276,-0.00295669l0.562106 0.323748c-0.00174803,0.0101181 -0.00166142,0.0205866 0.000405512,0.0308661zm-0.0963386 -0.328925l0.137185 0.239142 -0.000393701 0.000212598c-0.0100433,0.00581496 -0.0184409,0.0133898 -0.0250276,0.0221024l-0.558189 -0.32148c0.000389764,-0.00133465 0.000751969,-0.00267323 0.0010748,-0.00402756l0.361543 -0.00038189c0.00185827,0.00766535 0.00483071,0.015185 0.00897638,0.0223504 0.0159488,0.0275551 0.0451063,0.0426929 0.0748307,0.0420827zm0.145634 -0.424083l-0.145827 0.255433c-0.0148898,-0.000307087 -0.0300591,0.00333465 -0.0438858,0.0113386 -0.0208031,0.0120394 -0.0345394,0.0316024 -0.039752,0.0532638l-0.361531 0.00038189c-0.000330709,-0.00135039 -0.000685039,-0.00269685 -0.00108661,-0.00403543l0.572744 -0.33148c0.00574803,0.00604331 0.0122756,0.0110984 0.0193386,0.0150984zm-0.336768 -0.0744646l0.294126 0.000822835c-3.93701e-005,0.00811024 0.00109055,0.0162795 0.00346063,0.0242638l-0.572744 0.33148c-0.00096063,-0.00101969 -0.00195276,-0.00200394 -0.00296063,-0.00296063l0.180437 -0.31328c0.021378,0.00627165 0.0451929,0.00411024 0.0659921,-0.00792913 0.0138307,-0.00800394 0.0245354,-0.0193346 0.031689,-0.0323976zm-0.31228 0.495657l0.181094 0.312898c-0.0275669,0.026252 -0.034685,0.068878 -0.0147795,0.103276l0.000889764 0.00149606 -0.147787 0.254307c-0.00711811,-0.00414173 -0.0147953,-0.00720866 -0.0227559,-0.00912205l-0.000692913 -0.661764c0.00135039,-0.000326772 0.00269685,-0.000692913 0.0040315,-0.00109055zm-0.0436417 0.00110236l0.000700787 0.661776c-0.00766142,0.00185433 -0.015189,0.00483071 -0.0223543,0.00897638l-0.000370079 0.000224409 -0.148331 -0.253984c0.0153504,-0.0254685 0.0167441,-0.0582992 0.000799213,-0.0858504 -0.00414961,-0.00716535 -0.00918898,-0.0134921 -0.0149094,-0.0189213l0.180441 -0.313299c0.00133465,0.000393701 0.00267323,0.000755906 0.00402362,0.00107874zm-0.0383583 -0.0208228l-0.180445 0.313291c-0.021374,-0.00626772 -0.045185,-0.0041063 -0.0659843,0.00792913 -0.0138307,0.00800394 -0.0245354,0.0193386 -0.031685,0.0323937l-0.294138 -0.000791339c4.33071e-005,-0.00811811 -0.00107874,-0.0162992 -0.00345669,-0.0242953l0.572752 -0.33148c0.00096063,0.00101575 0.00194882,0.00199606 0.00295669,0.00295276zm-0.0228031 -0.0372323l-0.572744 0.33148c-0.00574409,-0.00603543 -0.0122795,-0.0110866 -0.0193307,-0.0150906l0.145815 -0.255437c0.0148976,0.000307087 0.0300591,-0.00333071 0.0438937,-0.0113386 0.0207992,-0.0120354 0.0345276,-0.0316102 0.0397441,-0.0532677l0.361531 -0.000377953c0.000326772,0.00135039 0.000692913,0.00268898 0.00109055,0.0040315zm0.321154 0.391217c0.0218976,-0.0126732 0.0499488,-0.00518898 0.062622,0.0167087 0.0126772,0.0219055 0.00519291,0.0499528 -0.0167047,0.062626 -0.0219055,0.0126772 -0.0499528,0.00519291 -0.0626339,-0.0167087 -0.0126732,-0.0219016 -0.00518898,-0.0499488 0.0167165,-0.062626zm-0.262358 0.370917c0.0219055,-0.0126811 0.0499488,-0.00520079 0.062626,0.0167047 0.0126772,0.0219055 0.00519291,0.0499488 -0.0167126,0.062626 -0.0219055,0.0126772 -0.0499449,0.00519291 -0.062622,-0.0167087 -0.0126772,-0.0219055 -0.00519685,-0.0499449 0.0167087,-0.062622zm-0.263138 -0.370362c0.0219055,-0.0126772 0.0499488,-0.00518898 0.062622,0.0167126 0.0126772,0.0219016 0.00520079,0.0499488 -0.0167047,0.062626 -0.0219055,0.0126772 -0.0499488,0.00518898 -0.062626,-0.0167126 -0.0126732,-0.0219016 -0.00519685,-0.0499488 0.0167087,-0.062626zm0.787764 -0.455921c0.0219016,-0.0126772 0.0499528,-0.00519291 0.062626,0.0167087 0.0126772,0.0219055 0.00519291,0.0499528 -0.0167126,0.0626299 -0.0219016,0.0126772 -0.0499449,0.00518898 -0.062622,-0.0167126 -0.0126772,-0.0219016 -0.00519685,-0.0499449 0.0167087,-0.062626zm0.180874 0.396669c0.0219055,-0.0126772 0.0499528,-0.00519685 0.0626299,0.0167087 0.0126772,0.0219016 0.00519291,0.0499528 -0.0167126,0.0626299 -0.0219055,0.0126772 -0.0499488,0.00518898 -0.062626,-0.0167126 -0.0126772,-0.0219055 -0.00519685,-0.0499488 0.0167087,-0.062626zm0.00829134 -0.809732c0.0219055,-0.0126772 0.0499567,-0.00519291 0.0626339,0.0167126 0.0126772,0.0219055 0.00518898,0.0499488 -0.0167165,0.062626 -0.0218976,0.0126732 -0.0499449,0.00519291 -0.062622,-0.0167087 -0.0126772,-0.0219055 -0.00519291,-0.0499567 0.0167047,-0.0626299zm-1.42933 0.827232c0.0219055,-0.0126772 0.0499488,-0.00519291 0.062626,0.0167126 0.0126772,0.0219055 0.00519685,0.0499449 -0.0167087,0.062622 -0.0219055,0.0126772 -0.0499488,0.00520079 -0.062626,-0.0167047 -0.0126772,-0.0219055 -0.00519291,-0.0499528 0.0167087,-0.0626299zm0.189173 -0.413059c0.0219016,-0.0126772 0.0499449,-0.00519685 0.062622,0.0167087 0.0126772,0.0219016 0.00519685,0.0499449 -0.0167087,0.062622 -0.0219055,0.0126772 -0.0499449,0.00519291 -0.062622,-0.0167087 -0.0126772,-0.0219055 -0.00519685,-0.0499449 0.0167087,-0.062622zm0.78776 -0.455921c0.0219055,-0.0126772 0.0499528,-0.00520079 0.0626299,0.0167047 0.0126772,0.0219055 0.00518898,0.0499488 -0.0167165,0.062626 -0.0219016,0.0126772 -0.0499449,0.00519291 -0.062622,-0.0167087 -0.0126772,-0.0219055 -0.00519685,-0.0499449 0.0167087,-0.062622z" id="_76829008">
</path>
</svg>