<?xml version="1.0" encoding="UTF-8" standalone="no"?>
<!-- Created with Inkscape (http://www.inkscape.org/) -->

<svg
   xmlns:dc="http://purl.org/dc/elements/1.1/"
   xmlns:cc="http://creativecommons.org/ns#"
   xmlns:rdf="http://www.w3.org/1999/02/22-rdf-syntax-ns#"
   xmlns:svg="http://www.w3.org/2000/svg"
   xmlns="http://www.w3.org/2000/svg"
   xmlns:sodipodi="http://sodipodi.sourceforge.net/DTD/sodipodi-0.dtd"
   xmlns:inkscape="http://www.inkscape.org/namespaces/inkscape"
   width="40.611649mm"
   height="46.231411mm"
   viewBox="0 0 40.611649 46.231411"
   version="1.1"
   id="svg4534"
   inkscape:version="0.92.1 r15371"
   sodipodi:docname="mark.svg">
  <defs
     id="defs4528" />
  <sodipodi:namedview
     id="base"
     pagecolor="#ffffff"
     bordercolor="#666666"
     borderopacity="1.0"
     inkscape:pageopacity="0.0"
     inkscape:pageshadow="2"
     inkscape:zoom="0.35"
     inkscape:cx="-190.39644"
     inkscape:cy="-372.63356"
     inkscape:document-units="mm"
     inkscape:current-layer="layer1"
     showgrid="false"
     fit-margin-top="0"
     fit-margin-left="0"
     fit-margin-right="0"
     fit-margin-bottom="0"
     inkscape:window-width="1215"
     inkscape:window-height="1000"
     inkscape:window-x="105"
     inkscape:window-y="24"
     inkscape:window-maximized="1" />
  <metadata
     id="metadata4531">
    <rdf:RDF>
      <cc:Work
         rdf:about="">
        <dc:format>image/svg+xml</dc:format>
        <dc:type
           rdf:resource="http://purl.org/dc/dcmitype/StillImage" />
        <dc:title></dc:title>
      </cc:Work>
    </rdf:RDF>
  </metadata>
  <g
     inkscape:label="Layer 1"
     inkscape:groupmode="layer"
     id="layer1"
     transform="translate(-28.075129,-4.0092956)">
    <path
       id="_76829008"
       class="fil1"
       d="m 47.808909,26.117336 c 0.55631,-0.321894 1.268704,-0.131826 1.5907,0.42451 0.321996,0.556387 0.131826,1.268705 -0.424409,1.5907 -0.55631,0.321996 -1.268704,0.13208 -1.5907,-0.424408 -0.321995,-0.556311 -0.131826,-1.268806 0.424409,-1.590802 z m 9.6234,-14.688997 7.223506,4.160393 -7.460107,-0.0211 c 0.0021,-0.367799 -0.09068,-0.740801 -0.288113,-1.081999 -0.592505,-1.023801 -1.903196,-1.373501 -2.926995,-0.781 l -0.0104,0.0062 -3.760089,-6.4417945 z m 7.933409,3.402304 -7.428711,-4.278503 -7.428409,-4.2782994 c 0.0235,-0.4039006 -0.0669,-0.818901 -0.2847,-1.195301 -0.592501,-1.0238003 -1.903101,-1.3732992 -2.926893,-0.7808011 -0.7245,0.4193007 -1.111301,1.1983999 -1.065601,1.9808011 l -7.419111,4.2936924 -7.419594,4.293997 c -0.655599,-0.429301 -1.5237,-0.481899 -2.2482,-0.0627 -1.023698,0.5925 -1.3735,1.9031 -0.780999,2.926791 0.2177,0.376301 0.532399,0.6615 0.8944,0.8422 l 0.0091,8.572805 0.0091,8.572296 c -0.03681,0.0186 -0.07341,0.03835 -0.109499,0.05918 -1.023699,0.592506 -1.373401,1.903095 -0.7809,2.926893 0.5925,1.023696 1.9031,1.373505 2.926892,0.780999 0.03609,-0.0209 0.0712,-0.04267 0.10569,-0.06528 l 7.428889,4.278808 7.428306,4.278198 c -0.0235,0.403911 0.06706,0.818793 0.284607,1.194891 0.592506,1.023799 1.903196,1.373505 2.926994,0.780999 0.724408,-0.419303 1.111199,-1.198295 1.065606,-1.980488 l 7.411897,-4.289502 7.705801,-4.459605 c 0.558089,0.18161 1.18839,0.13462 1.736395,-0.182372 1.023797,-0.592505 1.373505,-1.903195 0.780999,-2.926892 -0.169672,-0.292989 -0.397991,-0.530707 -0.661593,-0.706906 l -0.0089,-8.301635 -0.0091,-8.572702 c 0.03658,-0.0185 0.07315,-0.0382 0.10922,-0.05911 1.023697,-0.592501 1.373505,-1.903199 0.781,-2.926893 -0.592505,-1.0238 -1.903195,-1.373499 -2.926995,-0.780999 -0.03607,0.0209 -0.07137,0.0427 -0.105918,0.06541 z m -26.013917,27.991308 -7.222693,-4.159911 7.459193,0.02 c -0.002,0.367792 0.09068,0.740892 0.288188,1.082091 0.592506,1.023797 1.903095,1.373505 2.926893,0.780999 l 0.0092,-0.0055 3.762096,6.441794 z m -9.073794,-15.677795 -0.0086,-8.336305 3.711803,6.471692 -0.0097,0.0054 c -1.023797,0.592505 -1.373505,1.903196 -0.780999,2.926994 0.197612,0.341198 0.474701,0.607187 0.794512,0.788695 l -3.698024,6.478097 -0.009,-8.334603 z m 36.228272,-0.0381 0.0083,7.945805 c -0.07544,-0.0064 -0.150876,-0.0091 -0.226822,-0.0074 l -3.484399,-6.074512 0.0094,-0.0052 c 1.023697,-0.592506 1.373404,-1.903196 0.780897,-2.926892 -0.197358,-0.341097 -0.4747,-0.607187 -0.794409,-0.788797 l 3.69802,-6.477789 z m -9.048189,15.700909 -7.206997,4.170908 3.748405,-6.449796 c 0.642494,0.373708 1.462099,0.402005 2.151608,0.0029 0.689407,-0.398907 1.072896,-1.123596 1.069187,-1.867001 l 7.459194,-0.03632 z m -25.353899,-27.184096 7.214794,-4.175404 7.213193,-4.1744901 -3.74711,6.4491111 c -0.6425,-0.373901 -1.4623,-0.402502 -2.151799,-0.0034 -0.6895,0.3991 -1.0732,1.1238 -1.0692,1.8672 l -7.459903,0.03701 z M 43.537899,14.46227 47.291003,8.0022624 c 0.181102,0.1052068 0.376097,0.1832102 0.578205,0.2318004 l 0.0177,16.8089062 c -0.03429,0.0084 -0.06858,0.0175 -0.102616,0.02769 l -4.599598,-7.947594 c 0.700303,-0.666899 0.8811,-1.7495 0.375386,-2.623311 z m -11.178108,2.1819 7.470902,-0.03691 0.0216,0.0383 c 0.50579,0.8739 1.534591,1.256401 2.46159,0.981601 l 4.599609,7.947406 c -0.02565,0.0244 -0.05055,0.04953 -0.07468,0.07518 L 32.272908,17.260646 c 0.05842,-0.19939 0.08814,-0.4072 0.08712,-0.616395 z m -2.725394,-0.9944 c 0.556399,-0.322 1.2689,-0.131899 1.590799,0.424401 0.322001,0.556301 0.1319,1.268802 -0.4245,1.5908 -0.5564,0.322001 -1.268699,0.1318 -1.5907,-0.424599 -0.3219,-0.556199 -0.1319,-1.268601 0.424401,-1.590602 z m 1.646798,2.866695 0.0093,-0.0052 c 0.181991,-0.10541 0.342801,-0.233502 0.480601,-0.378698 l 14.565807,8.389112 c -0.01,0.03378 -0.0191,0.06807 -0.02718,0.102362 l -9.182989,0.0096 c -0.04724,-0.194564 -0.12268,-0.385699 -0.22809,-0.56769 -0.404901,-0.699593 -1.14521,-1.084301 -1.900199,-1.068807 z M 47.786902,5.143975 c 0.556413,-0.3220008 1.268705,-0.1319022 1.590701,0.424401 0.321995,0.5563006 0.13208,1.2686995 -0.424409,1.5907003 -0.556311,0.3220008 -1.268705,0.1318006 -1.5907,-0.4245001 C 47.040599,6.1782757 47.230668,5.4659759 47.786902,5.143975 Z m 1.08839,3.0895036 c 0.194818,-0.047295 0.385699,-0.1227074 0.56769,-0.228092 l 0.0098,-0.0058 3.76649,6.4528954 c -0.389102,0.646601 -0.424307,1.4797 -0.0195,2.179099 0.10541,0.181991 0.233426,0.342502 0.378612,0.4805 l -4.583194,7.957581 c -0.03378,-0.0099 -0.06782,-0.0191 -0.102108,-0.02718 z m -7.752105,6.3316104 c 0.556209,-0.321899 1.268603,-0.131902 1.590599,0.4245 0.321996,0.5563 0.131826,1.2686 -0.424409,1.590599 -0.556387,0.322001 -1.268806,0.132004 -1.590802,-0.424401 -0.321996,-0.556301 -0.131826,-1.268601 0.424612,-1.590698 z m 23.110189,23.042295 -7.279791,0.03531 -0.0217,-0.03861 c -0.505587,-0.87371 -1.534488,-1.25631 -2.461589,-0.981305 L 49.87058,28.675171 c 0.02565,-0.0244 0.0508,-0.04953 0.07493,-0.07518 L 64.223,36.823189 c -0.04445,0.256998 -0.04216,0.522912 0.01032,0.784024 z m -2.44701,-8.354695 3.484499,6.074206 -0.01,0.0054 c -0.255093,0.147574 -0.4684,0.340106 -0.635712,0.56139 l -14.178,-8.16559 c 0.0099,-0.03378 0.0191,-0.06782 0.02718,-0.102362 l 9.183192,-0.0097 c 0.04724,0.194818 0.122682,0.385699 0.228092,0.56769 0.405104,0.699897 1.145691,1.084402 1.900706,1.068883 z m 3.699103,-10.771708 -3.704006,6.487998 c -0.378206,-0.0078 -0.763497,0.08458 -1.114705,0.288011 -0.528394,0.30579 -0.87729,0.802691 -1.0097,1.352905 l -9.182887,0.0097 c -0.0084,-0.03429 -0.0174,-0.06858 -0.02769,-0.102616 l 14.547809,-8.41949 c 0.14605,0.153492 0.311811,0.281899 0.491175,0.383492 z m -8.553908,-1.8914 7.470801,0.0209 c -0.0011,0.205994 0.02769,0.413499 0.08788,0.616301 l -14.547661,8.419591 c -0.0244,-0.02591 -0.04953,-0.0508 -0.07518,-0.07518 L 54.4505,17.613881 c 0.543001,0.159309 1.147902,0.104394 1.676196,-0.201396 0.351308,-0.203302 0.623189,-0.491099 0.804902,-0.822882 z m -7.93191,12.589687 4.599787,7.947609 c -0.700202,0.6668 -0.880999,1.749502 -0.375412,2.623209 l 0.0226,0.0381 -3.75379,6.459397 c -0.180847,-0.105156 -0.375792,-0.183134 -0.578001,-0.231648 l -0.0176,-16.808803 c 0.03429,-0.0083 0.06858,-0.0176 0.102362,-0.02769 z m -1.108507,0.02794 0.0178,16.809108 c -0.194564,0.04699 -0.385801,0.122682 -0.567792,0.228092 l -0.0094,0.0057 -3.767607,-6.451196 c 0.38989,-0.646885 0.425297,-1.480793 0.0203,-2.18059 -0.10541,-0.182118 -0.233426,-0.342696 -0.378688,-0.480591 l 4.583201,-7.957782 c 0.03378,0.01 0.06782,0.0192 0.102108,0.02743 z m -0.974293,-0.528904 -4.583303,7.957591 c -0.5429,-0.159258 -1.147699,-0.104394 -1.675994,0.201422 -0.351307,0.2032 -0.623188,0.49121 -0.804798,0.822807 l -7.471106,-0.02011 c 0.0011,-0.206248 -0.02743,-0.413996 -0.08788,-0.617093 l 14.547901,-8.41958 c 0.0244,0.02591 0.04953,0.0508 0.07518,0.07493 z M 46.337654,27.732611 31.789957,36.152202 C 31.644161,35.998786 31.478071,35.870593 31.298958,35.76889 l 3.7037,-6.488098 c 0.37841,0.0078 0.763499,-0.08458 1.114908,-0.288011 0.528295,-0.305689 0.877011,-0.802894 1.009498,-1.353007 l 9.182887,-0.0096 c 0.0083,0.03429 0.0176,0.06833 0.02769,0.102362 z m 8.157312,9.936911 c 0.556209,-0.321895 1.268703,-0.131826 1.590598,0.42441 0.321995,0.556387 0.131826,1.268804 -0.424307,1.590699 -0.556411,0.321995 -1.268806,0.131826 -1.590903,-0.424408 -0.321894,-0.55631 -0.131826,-1.268706 0.424612,-1.590701 z m -6.663893,9.421291 c 0.556387,-0.322096 1.268704,-0.13208 1.5907,0.424307 0.321996,0.556413 0.131826,1.268706 -0.42451,1.590701 -0.556387,0.321996 -1.268603,0.131826 -1.590599,-0.42441 -0.321996,-0.556387 -0.13208,-1.268603 0.424409,-1.590598 z m -6.683705,-9.407194 c 0.556412,-0.321996 1.268704,-0.131826 1.590599,0.42451 0.321995,0.556311 0.13208,1.268704 -0.424307,1.590702 -0.556413,0.321995 -1.268705,0.131826 -1.590701,-0.424511 -0.321894,-0.55631 -0.13208,-1.268706 0.424409,-1.590701 z M 61.156573,26.103226 c 0.55631,-0.321995 1.268807,-0.131826 1.590699,0.424409 0.321998,0.556387 0.131826,1.268806 -0.424508,1.590802 -0.556313,0.321996 -1.268603,0.131826 -1.590601,-0.42451 -0.321995,-0.556311 -0.13208,-1.268603 0.42441,-1.590701 z m 4.594199,10.075392 c 0.556413,-0.321995 1.268806,-0.13208 1.590802,0.424408 0.321995,0.556313 0.131826,1.268807 -0.424511,1.590802 -0.556387,0.321998 -1.268704,0.131826 -1.590699,-0.424508 -0.321998,-0.556387 -0.13208,-1.268706 0.424408,-1.590702 z m 0.210566,-20.567192 c 0.556387,-0.322001 1.268907,-0.131902 1.590902,0.4245 0.321998,0.556399 0.131826,1.268699 -0.424585,1.5907 -0.556209,0.321899 -1.268603,0.131902 -1.590598,-0.424401 -0.321998,-0.5564 -0.131826,-1.2689 0.424281,-1.590799 z m -36.304929,21.01175 c 0.5564,-0.321995 1.2687,-0.131826 1.590701,0.424511 0.322,0.556411 0.132003,1.268603 -0.424401,1.590598 -0.5564,0.321996 -1.2687,0.13208 -1.590701,-0.424307 -0.322,-0.556413 -0.131902,-1.268806 0.424401,-1.590802 z m 4.804993,-10.491697 c 0.556311,-0.321996 1.268603,-0.13208 1.590599,0.424408 0.321996,0.556311 0.13208,1.268603 -0.424409,1.590599 -0.556386,0.321996 -1.268602,0.131826 -1.590598,-0.424409 -0.321996,-0.556412 -0.13208,-1.268603 0.424408,-1.590598 z M 54.470506,14.551085 c 0.556386,-0.322001 1.268805,-0.132105 1.590801,0.424299 0.321995,0.5564 0.131826,1.2687 -0.424612,1.5907 -0.55631,0.322002 -1.268602,0.131903 -1.590598,-0.4244 -0.321996,-0.5564 -0.13208,-1.268601 0.424409,-1.590599 z"
       inkscape:connector-curvature="0"
       style="clip-rule:evenodd;fill:#a60a0a;fill-rule:evenodd;stroke-width:25.39999771;image-rendering:optimizeQuality;shape-rendering:geometricPrecision;text-rendering:geometricPrecision" />
  </g>
</svg>
